<svg width="40" height="40" viewBox="0 0 40 40" fill="none" xmlns="http://www.w3.org/2000/svg">
<path d="M18.2861 24H21.2861C21.5623 24 21.7861 23.801 21.7861 23.5556V8.44444C21.7861 8.199 21.5623 8 21.2861 8H18.2861C18.01 8 17.7861 8.199 17.7861 8.44444V23.5556C17.7861 23.801 18.01 24 18.2861 24ZM18.7861 8.88889H20.7861V23.1111H18.7861V8.88889Z" fill="#404040"/>
<path d="M18.7861 8.88889H20.7861V23.1111H18.7861V8.88889Z" fill="#FF808D"/>
<path d="M18.0715 29.5H21.5007C21.8164 29.5 22.0723 29.2441 22.0723 28.9285V25.4993C22.0723 25.1836 21.8164 24.9277 21.5007 24.9277H18.0715C17.7559 24.9277 17.5 25.1836 17.5 25.4993V28.9285C17.5 29.2441 17.7559 29.5 18.0715 29.5ZM18.6431 26.0708H20.9292V28.3569H18.6431V26.0708Z" fill="#404040"/>
<path d="M18.6431 26.0708H20.9292V28.3569H18.6431V26.0708Z" fill="#FF808D"/>
<path d="M19.9473 2.5C15.2942 2.50532 10.8333 4.33114 7.5431 7.57694C4.25289 10.8227 2.40208 15.2235 2.39669 19.8137C2.39035 22.3917 2.97377 24.9379 4.1035 27.2626L1.27036 36.8573C1.24823 36.9321 1.24407 37.011 1.25821 37.0877C1.27235 37.1644 1.30439 37.2368 1.3518 37.2991C1.39921 37.3615 1.46069 37.4121 1.53137 37.447C1.60205 37.4818 1.67999 37.5 1.75901 37.5C1.80725 37.5001 1.85524 37.4933 1.90153 37.4799L11.1828 34.8128C13.5146 36.1391 16.1245 36.9186 18.8106 37.0909C21.4966 37.2632 24.1868 36.8237 26.6732 35.8064C29.1595 34.7892 31.3753 33.2213 33.1493 31.2242C34.9232 29.2271 36.2078 26.8542 36.9035 24.289C37.5993 21.7239 37.6877 19.0353 37.1618 16.4311C36.6359 13.8269 35.5098 11.3769 33.8707 9.27059C32.2316 7.16431 30.1234 5.45819 27.7091 4.28416C25.2947 3.11014 22.639 2.49968 19.9473 2.5ZM19.9473 36.1231C16.9782 36.1239 14.0638 35.3348 11.5112 33.8388C11.4511 33.8036 11.3844 33.781 11.3152 33.7723C11.2459 33.7636 11.1755 33.769 11.1085 33.7882L2.50705 36.2597L5.13536 27.358C5.17089 27.2378 5.15948 27.1088 5.10339 26.9965C3.98663 24.7627 3.40881 22.3044 3.41512 19.8137C3.41512 16.588 4.38474 13.4347 6.20136 10.7527C8.01798 8.0706 10.6 5.98018 13.621 4.74576C16.6419 3.51133 19.966 3.18835 23.173 3.81766C26.3801 4.44696 29.3259 6.00028 31.638 8.2812C33.9501 10.5621 35.5247 13.4682 36.1626 16.6319C36.8005 19.7956 36.4731 23.0749 35.2218 26.0551C33.9705 29.0352 31.8515 31.5824 29.1327 33.3745C26.4139 35.1666 23.2175 36.1231 19.9477 36.1231H19.9473Z" fill="#404040"/>
</svg>
