<svg width="20" height="20" viewBox="0 0 20 20" fill="none" xmlns="http://www.w3.org/2000/svg">
<g clip-path="url(#clip0_567_34222)">
<path fill-rule="evenodd" clip-rule="evenodd" d="M10 1.875H5.83333C4.78333 1.875 3.77667 2.29167 3.03417 3.03417C2.29167 3.77667 1.875 4.78333 1.875 5.83333V14.1667C1.875 15.2167 2.29167 16.2233 3.03417 16.9658C3.77667 17.7083 4.78333 18.125 5.83333 18.125H14.1667C15.2167 18.125 16.2233 17.7083 16.9658 16.9658C17.7083 16.2233 18.125 15.2167 18.125 14.1667V10C18.125 9.655 17.845 9.375 17.5 9.375C17.155 9.375 16.875 9.655 16.875 10V14.1667C16.875 14.885 16.59 15.5742 16.0817 16.0817C15.5742 16.59 14.885 16.875 14.1667 16.875H5.83333C5.115 16.875 4.42583 16.59 3.91833 16.0817C3.41 15.5742 3.125 14.885 3.125 14.1667V5.83333C3.125 5.115 3.41 4.42583 3.91833 3.91833C4.42583 3.41 5.115 3.125 5.83333 3.125H10C10.345 3.125 10.625 2.845 10.625 2.5C10.625 2.155 10.345 1.875 10 1.875Z" fill="#404040"/>
<path fill-rule="evenodd" clip-rule="evenodd" d="M15.7449 0.495885C13.9179 2.32283 9.0567 7.18405 9.0567 7.18405C8.96197 7.27878 8.89528 7.39864 8.86434 7.5301L8.0195 11.1086C7.9615 11.3531 8.03497 11.6103 8.21186 11.7881C8.38972 11.965 8.64685 12.0385 8.89141 11.9805L12.4699 11.1357C12.6014 11.1047 12.7212 11.038 12.816 10.9433C12.816 10.9433 17.6772 6.08208 19.5041 4.25514C20.1653 3.59396 20.1653 2.52292 19.5041 1.86271L18.1373 0.495885C17.4771 -0.165295 16.406 -0.165295 15.7449 0.495885ZM16.7705 1.52052C16.8652 1.42676 17.0179 1.42676 17.1127 1.52052L18.4795 2.88734C18.5732 2.98207 18.5732 3.1348 18.4795 3.22953L11.9363 9.7727L9.69952 10.3005L10.2273 8.06368L16.7705 1.52052Z" fill="#404040"/>
<path d="M16.7705 1.52052C16.8652 1.42676 17.0179 1.42676 17.1127 1.52052L18.4795 2.88734C18.5732 2.98207 18.5732 3.1348 18.4795 3.22953L11.9363 9.7727L9.69952 10.3005L10.2273 8.06368L16.7705 1.52052Z" fill="#FF808D"/>
<path fill-rule="evenodd" clip-rule="evenodd" d="M18.424 4.53979L16.0673 2.18313C15.8231 1.93896 15.4273 1.93896 15.1831 2.18313C14.939 2.42646 14.939 2.82312 15.1831 3.06646L17.5406 5.42396C17.784 5.66812 18.1806 5.66812 18.424 5.42396C18.6681 5.17979 18.6681 4.78396 18.424 4.53979V4.53979Z" fill="#404040"/>
</g>
<defs>
<clipPath id="clip0_567_34222">
<rect width="20" height="20" fill="white"/>
</clipPath>
</defs>
</svg>
