<svg width="49" height="48" viewBox="0 0 49 48" fill="none" xmlns="http://www.w3.org/2000/svg">
<path d="M17.75 18C19.4069 18 20.75 16.6569 20.75 15C20.75 13.3431 19.4069 12 17.75 12C16.0931 12 14.75 13.3431 14.75 15C14.75 16.6569 16.0931 18 17.75 18Z" fill="#FF808D"/>
<path d="M47 36V39C47 39.1989 46.921 39.3897 46.7803 39.5303C46.6397 39.671 46.4489 39.75 46.25 39.75H2.75C2.55109 39.75 2.36032 39.671 2.21967 39.5303C2.07902 39.3897 2 39.1989 2 39V37.5L17.75 21.75L22.25 26.25L29.75 18.75L47 36Z" fill="#FF808D"/>
<path d="M17.75 18C19.4069 18 20.75 16.6569 20.75 15C20.75 13.3431 19.4069 12 17.75 12C16.0931 12 14.75 13.3431 14.75 15C14.75 16.6569 16.0931 18 17.75 18Z" fill="#FF808D"/>
<path d="M35 39.75H2V37.5L17.75 21.75L35 39.75Z" fill="#FF808D"/>
<path d="M46.25 7.5H2.75C2.35218 7.5 1.97064 7.65804 1.68934 7.93934C1.40804 8.22064 1.25 8.60218 1.25 9V39C1.25 39.3978 1.40804 39.7794 1.68934 40.0607C1.97064 40.342 2.35218 40.5 2.75 40.5H46.25C46.6478 40.5 47.0294 40.342 47.3107 40.0607C47.592 39.7794 47.75 39.3978 47.75 39V9C47.75 8.60218 47.592 8.22064 47.3107 7.93934C47.0294 7.65804 46.6478 7.5 46.25 7.5ZM46.25 9V34.1903L30.2803 18.2197C30.1396 18.0791 29.9489 18.0002 29.75 18.0002C29.5511 18.0002 29.3604 18.0791 29.2197 18.2197L22.25 25.1895L18.2803 21.2197C18.1396 21.0791 17.9489 21.0002 17.75 21.0002C17.5511 21.0002 17.3604 21.0791 17.2197 21.2197L2.75 35.6895V9H46.25ZM2.75 39V37.8105L17.75 22.8105L26.2197 31.2803C26.3612 31.4169 26.5507 31.4925 26.7473 31.4908C26.9439 31.489 27.1321 31.4102 27.2711 31.2711C27.4102 31.1321 27.489 30.9439 27.4908 30.7473C27.4925 30.5507 27.4169 30.3612 27.2803 30.2197L23.3105 26.25L29.75 19.8105L46.25 36.3105V39H2.75Z" fill="#404040"/>
<path d="M17.75 18.75C18.4917 18.75 19.2167 18.5301 19.8334 18.118C20.4501 17.706 20.9307 17.1203 21.2145 16.4351C21.4984 15.7498 21.5726 14.9958 21.4279 14.2684C21.2832 13.541 20.9261 12.8728 20.4016 12.3484C19.8772 11.8239 19.209 11.4668 18.4816 11.3221C17.7542 11.1774 17.0002 11.2516 16.3149 11.5355C15.6297 11.8193 15.044 12.2999 14.632 12.9166C14.2199 13.5333 14 14.2583 14 15C14.0012 15.9942 14.3967 16.9473 15.0997 17.6503C15.8027 18.3533 16.7558 18.7488 17.75 18.75ZM17.75 12.75C18.195 12.75 18.63 12.882 19 13.1292C19.37 13.3764 19.6584 13.7278 19.8287 14.139C19.999 14.5501 20.0436 15.0025 19.9568 15.439C19.8699 15.8754 19.6557 16.2763 19.341 16.591C19.0263 16.9057 18.6254 17.12 18.189 17.2068C17.7525 17.2936 17.3001 17.249 16.889 17.0787C16.4778 16.9084 16.1264 16.62 15.8792 16.25C15.632 15.88 15.5 15.445 15.5 15C15.5 14.4033 15.7371 13.831 16.159 13.409C16.581 12.9871 17.1533 12.75 17.75 12.75Z" fill="#404040"/>
</svg>
